<?xml version="1.0" encoding="UTF-8" standalone="no"?>
<svg
   viewBox="0 0 701.70098 1058.52"
   height="1058.52"
   width="701.70099"
   xml:space="preserve"
   id="svg2"
   version="1.1"
   sodipodi:docname="Planungsmodell_Makroplanung_23.svg"
   inkscape:version="1.3.2 (091e20e, 2023-11-25)"
   xmlns:inkscape="http://www.inkscape.org/namespaces/inkscape"
   xmlns:sodipodi="http://sodipodi.sourceforge.net/DTD/sodipodi-0.dtd"
   xmlns="http://www.w3.org/2000/svg"
   xmlns:svg="http://www.w3.org/2000/svg"
   xmlns:rdf="http://www.w3.org/1999/02/22-rdf-syntax-ns#"
   xmlns:cc="http://creativecommons.org/ns#"
   xmlns:dc="http://purl.org/dc/elements/1.1/"><sodipodi:namedview
     id="namedview1"
     pagecolor="#ffffff"
     bordercolor="#000000"
     borderopacity="0.25"
     inkscape:showpageshadow="2"
     inkscape:pageopacity="0.0"
     inkscape:pagecheckerboard="0"
     inkscape:deskcolor="#d1d1d1"
     inkscape:zoom="0.68773979"
     inkscape:cx="-28.353747"
     inkscape:cy="125.04729"
     inkscape:window-width="1280"
     inkscape:window-height="655"
     inkscape:window-x="0"
     inkscape:window-y="25"
     inkscape:window-maximized="1"
     inkscape:current-layer="g10" /><metadata
     id="metadata8"><rdf:RDF><cc:Work
         rdf:about=""><dc:format>image/svg+xml</dc:format><dc:type
           rdf:resource="http://purl.org/dc/dcmitype/StillImage" /></cc:Work></rdf:RDF></metadata><defs
     id="defs6" /><g
     transform="matrix(1.3333333,0,0,-1.3333333,0,1122.52)"
     id="g10"><g
   transform="translate(172.0497,342.1058)"
   id="g12"><path
     id="path14"
     style="fill:#fbfabb;fill-opacity:1;fill-rule:nonzero;stroke:none"
     d="m 0,0 -0.267,-57.963 175.595,-23.1 175.28,23.1 L 350.874,0 Z" /></g><text
   id="text18"
   style="font-variant:normal;font-weight:normal;font-stretch:normal;font-size:18px;font-family:Arial;-inkscape-font-specification:ArialMT;writing-mode:lr-tb;fill:#231f20;fill-opacity:1;fill-rule:nonzero;stroke:none"
   transform="scale(1,-1)"
   x="183.9127"
   y="-306.61551"><tspan
     id="tspan16"
     y="-306.61551"
     x="183.9127 198.90671 202.90271 211.90271 217.89671 227.90471 237.9127 241.90871 251.9167 261.92471 271.93271 281.9407">Mikroplanung</tspan></text>
<g
   transform="translate(4.4472095,342.2302)"
   id="g20"><path
     id="path22"
     style="fill:#f6f569;fill-opacity:1;fill-rule:nonzero;stroke:none"
     d="m 0,0 -0.128,-57.957 83.971,-23.23 83.976,23.23 L 167.947,0 Z" /></g><g
   transform="translate(4.4472095,246.84541)"
   id="g24"><path
     id="path26"
     style="fill:#c1bc92;fill-opacity:1;fill-rule:nonzero;stroke:none"
     d="m 0,0 -0.128,-114.023 83.973,-22.838 83.977,22.838 L 167.949,0 Z" /></g><g
   transform="translate(4.4472095,465.13731)"
   id="g28"><path
     id="path30"
     style="fill:#f2b169;fill-opacity:1;fill-rule:nonzero;stroke:none"
     d="m 0,0 -0.128,-85.696 83.755,-23.43 84.194,23.43 L 167.948,0 Z" /></g><g
   transform="translate(4.4472095,638.0507)"
   id="g32"><path
     id="path34"
     style="fill:#d1a1c2;fill-opacity:1;fill-rule:nonzero;stroke:none"
     d="m 0,0 -0.128,-135.265 83.756,-23.467 84.194,23.467 L 167.95,0 Z" /></g><g
   transform="translate(5.4481095,789.11311)"
   id="g36"><path
     id="path38"
     style="fill:#a08588;fill-opacity:1;fill-rule:nonzero;stroke:none"
     d="m 0,0 -0.128,-114.023 83.973,-22.838 83.977,22.838 L 167.949,0 Z" /></g><g
   transform="translate(171.8315,246.84541)"
   id="g40"><path
     id="path42"
     style="fill:#e6e3d0;fill-opacity:1;fill-rule:nonzero;stroke:none"
     d="m 0,0 -0.267,-114.046 175.435,-22.843 175.444,22.843 L 350.879,0 Z" /></g><g
   transform="translate(171.83192,465.13731)"
   id="g44"><path
     id="path46"
     style="fill:#f9dfbd;fill-opacity:1;fill-rule:nonzero;stroke:none"
     d="M 0,0 -0.267,-85.71 175.329,-108.984 350.611,-85.71 350.877,0 Z" /></g><g
   transform="translate(171.83131,638.0507)"
   id="g48"><path
     id="path50"
     style="fill:#edd5e5;fill-opacity:1;fill-rule:nonzero;stroke:none"
     d="M 0,0 -0.267,-135.298 175.33,-158.591 350.613,-135.298 350.879,0 Z" /></g><g
   transform="translate(172.83231,789.11311)"
   id="g52"><path
     id="path54"
     style="fill:#d8cbcb;fill-opacity:1;fill-rule:nonzero;stroke:none"
     d="m 0,0 -0.267,-114.046 175.435,-22.843 175.444,22.843 L 350.879,0 Z" /></g><text
   id="text66"
   style="font-variant:normal;font-weight:bold;font-stretch:normal;font-size:20px;font-family:Arial;-inkscape-font-specification:Arial-BoldMT;writing-mode:lr-tb;fill:#231f20;fill-opacity:1;fill-rule:nonzero;stroke:none"
   transform="scale(1,-1)"
   x="19.668108"
   y="-304.45081"><tspan
     id="tspan56"
     y="-304.45081"
     x="19.668108 33.290108 45.240108 57.184109 68.06411 75.584106 86.414108 92.984108 98.364105 109.10011 114.49611 125.3821 132.90211 143.73412">Konkretisieren</tspan><tspan
     id="tspan58"
     y="-209.1908"
     x="35.648109 49.664108 60.504108 71.360107 76.586105 81.96611 92.702103 98.100105 108.98411 116.51211 127.3521">Realisieren</tspan><tspan
     id="tspan60"
     y="-427.49081"
     x="39.68811 52.708111 64.650108 71.544106 86.774109 97.658104 105.96811 112.4761 123.3101">Entwerfen</tspan><tspan
     id="tspan62"
     y="-600.41077"
     x="29.328108 42.352108 54.29211 60.944111 71.62011 82.49411 94.516106 105.35611 110.70811 122.8381 133.67812">Entscheiden</tspan><tspan
     id="tspan64"
     y="-751.47076"
     x="57.48811 71.928108 77.488106 88.608109 96.388107 107.5081">Klären</tspan></text>
<text
   id="text80"
   style="font-variant:normal;font-weight:normal;font-stretch:normal;font-size:18px;font-family:Arial;-inkscape-font-specification:ArialMT;writing-mode:lr-tb;fill:#231f20;fill-opacity:1;fill-rule:nonzero;stroke:none"
   transform="scale(1,-1)"
   x="190.06992"
   y="-753.6228"><tspan
     id="tspan68"
     y="-753.6228"
     x="190.06992 202.07591 206.07191 211.07591 221.08391 231.0919 236.09592 240.0919 250.09991 260.10791 269.10791 279.11591 289.1239 299.1319 303.1279 312.1279 321.1279">Situationsanalyse</tspan><tspan
     id="tspan70"
     y="-725.61481"
     x="185.0659 190.06992 202.07591 212.08391 221.08391 231.0919 241.09991 251.10791 261.11591 265.11191 274.11191 283.11191"> Sachanalyse</tspan><tspan
     id="tspan72"
     y="-697.60681"
     x="185.0659 190.06631 203.0623 207.0583 217.06631 227.07431 236.07431 241.07831 245.07431 254.07431 263.07431 273.08231 283.0903 287.11511 299.12112 309.12912 319.13712 323.13312 332.13312 341.13312"> Didaktische Analyse</tspan><tspan
     id="tspan74"
     y="-430.3428"
     x="183.69791 193.7059 203.71391 209.70792 219.71591 229.72391 235.71791 245.72591 254.72591 264.73392 273.73392 282.73392">Lernprozesse</tspan><tspan
     id="tspan76"
     y="-402.33481"
     x="183.69791 193.7059 203.71391 209.70792 219.71591 229.72391 235.71791 241.71191 251.71991 261.72791 271.7359 281.74393 296.73792 306.74591 316.75391 321.7579">Lernarrangements</tspan><tspan
     id="tspan78"
     y="-209.44678"
     x="183.69791 196.69391 206.7019 211.7059 221.71391 227.70792 233.7019 237.69791 246.69791 256.7059 261.7099 270.7099 280.71793 290.72592 296.71991 305.71991 315.72791 320.7319 330.7399 340.74789 346.74191 356.74991 366.7579">Unterrichtsdurchführung</tspan></text>
<text
   id="text84"
   style="font-variant:normal;font-weight:normal;font-stretch:normal;font-size:18px;font-family:Arial;-inkscape-font-specification:ArialMT;writing-mode:lr-tb;fill:#231f20;fill-opacity:1;fill-rule:nonzero;stroke:none"
   transform="scale(1,-1)"
   x="183.69791"
   y="-181.4388"><tspan
     id="tspan82">Reflexion</tspan></text>
<text
   id="text96"
   style="font-variant:normal;font-weight:normal;font-stretch:normal;font-size:18px;font-family:Arial;-inkscape-font-specification:ArialMT;writing-mode:lr-tb;fill:#231f20;fill-opacity:1;fill-rule:nonzero;stroke:none"
   transform="scale(1,-1)"
   x="183.69791"
   y="-153.4308"><tspan
     id="tspan86"
     y="-153.4308"
     x="183.69791 200.3623 210.37032 214.3663 219.37032 229.37831 235.37231 245.38031 255.38831 260.3923 273.38831 277.38431 286.38431 295.38431 299.38031 309.38831 319.3963">Weiterentwicklung</tspan><tspan
     id="tspan88"
     y="-602.29681"
     x="184.05791 194.0659 204.07391 210.06792 220.07591 230.08391 240.0919 250.09991 260.10791 270.11591 279.11591 284.1199 294.1279 304.13593">Lerngegenstand</tspan><tspan
     id="tspan90"
     y="-575.29681"
     x="184.05791 196.0639 206.07191 221.0659 231.07391 241.08191 246.08591 256.0939 266.1019 275.1019 285.10992">Kompetenzen</tspan><tspan
     id="tspan92"
     y="-548.29681"
     x="184.05791 194.0659 204.07391 210.06792 220.07591 229.07591 233.07191 243.07991 247.07591 257.08392 262.08792 267.09192 272.09592 282.10391 292.11191 302.1199 308.11392 318.12192 322.11792 332.12592 342.13391 347.13791 361.14191 371.1499 376.1539 385.1539 395.16193 410.15591 420.16391">Lernziele / Learning Outcomes</tspan><tspan
     id="tspan94"
     y="-521.29681"
     x="184.05791 196.0639 206.07191 216.07991 222.07391 227.07791 237.08591 241.08191 245.07791 255.08591 265.0939">Beurteilung</tspan></text>
<text
   id="text100"
   style="font-variant:normal;font-weight:bold;font-stretch:normal;font-size:30px;font-family:'Avenir Black';-inkscape-font-specification:Avenir-Black;writing-mode:lr-tb;fill:#231f20;fill-opacity:1;fill-rule:nonzero;stroke:none"
   transform="scale(1,-1)"
   x="5.3117085"
   y="-814.4129"><tspan
     id="tspan98">Modell Makroplanung (in Arbeit)</tspan></text>
<text
   id="text108"
   style="font-variant:normal;font-weight:normal;font-stretch:normal;font-size:12px;font-family:Arial;-inkscape-font-specification:ArialMT;writing-mode:lr-tb;fill:#231f20;fill-opacity:1;fill-rule:nonzero;stroke:none"
   transform="scale(1,-1)"
   x="3.9226086"
   y="-83.166107"><tspan
     id="tspan102"
     y="-83.166107"
     x="3.9226086 7.2586083 13.930609 18.416605 26.420605 33.092606 35.756603 42.428604 49.100605 55.772602 62.444603 69.1166 75.788605 80.289597 86.961601 93.633598 96.969597 101.4566 110.79261 113.4566 120.1286 124.12461 130.7966 137.4686 144.14061 150.81261 154.14861 158.64261 166.64661 169.9826 174.46561 177.80161 182.2856 192.2816 198.9536 202.9496 208.9496 211.6136 218.2856 221.6216 226.1116 236.1076 239.4436 243.92761 247.26361 251.74762 263.07562 269.74762 276.41962 283.09161 289.76361 293.75961 297.09561 301.58563 310.24963 313.58563 318.07162 322.06763 328.73962 335.41162 342.08362 348.75562 352.75162 356.08762 360.57962 368.58362 371.24762 377.91962 384.59161 391.26361 397.93561 404.6076 410.6076 417.2796 421.2756 427.9476 434.6196 437.2836 440.6196 447.29163 453.96362 458.4696 466.4736 473.1456 477.63361 484.3056 490.9776 497.6496 502.14062 510.14462 516.81659 520.15259">In Anlehnung an: Giordano, A. / Marcin, M. / Wagner, U. (2018): Planungsarbeiten P3 und P4; </tspan><tspan
     id="tspan104"
     y="-68.766106"
     x="3.9226086 13.918609 20.590609 27.262609 33.262608 36.598606 41.705605 49.709602 53.045605 58.149601 61.4856 66.5896 74.593597 80.593597 87.265594 93.937599 100.6096 107.2816 113.9536 120.6256 127.29758 131.29359 137.96559 144.63759 148.63359 151.96959 157.0896 165.0936 168.4296 173.53259 177.52859 184.20059 190.8726 197.5446 204.2166 208.2126 211.5486 216.65961 224.6636 231.3356 238.0076 244.0076 250.6796 257.35162 267.3476 274.01959 280.69159 287.36362 290.02762 292.69159 297.81461 306.47861 313.1506 316.4866 323.1586 327.1546 331.1506 333.81461 339.81461 346.4866 349.8226 355.8226 362.4946 365.1586 371.8306 378.50259 385.17462 391.84662 398.51862 401.85461 406.97659 414.98059 421.65262 428.32462 434.99661 441.66861 448.34061 455.0126 457.67661 463.67661 469.67661 476.3486 483.0206 488.14261 496.80661 503.47861 509.47861 516.15057">Manz, K. / Schönenberger, S. (2020): Phasenmodell Unterrichtsplanung; Pädagogische Hoch-</tspan><tspan
     id="tspan106"
     y="-54.366104"
     x="3.9226086 9.9226084 15.922608 22.59461 29.266609 31.930609 38.602608 41.938606 49.942608 55.942608 62.614609 71.27861 77.27861 83.27861 86.614609 90.610611 99.274605 105.94661 109.28261 113.27861 116.61461 120.61061 127.28261 133.95461 140.6266 147.29861 151.2946 154.6306 157.96661 165.97061 172.64261 182.63861 189.31061 195.9826 199.3186 205.9906 212.66261 218.66261 225.33461 229.33061 231.99461 238.66661 245.33861 248.67461 251.33861 258.01062 262.00662 265.34262 272.01462 275.35062 284.01462 290.68661 294.02261 300.69461 304.69061 308.68661 311.35062 317.35062 324.02261 327.35861 333.35861 340.03061 342.69461 349.36661 356.0386 362.7106 369.3826 376.0546">schule Schwyz (Hg.) (2018): Kompetenzorientierte Unterrichtsplanung.</tspan></text>
</g></svg>
