<?xml version="1.0" encoding="UTF-8" standalone="no"?>
<svg
   viewBox="0 0 697.70098 911.52"
   height="911.52002"
   width="697.70099"
   xml:space="preserve"
   id="svg2"
   version="1.1"
   sodipodi:docname="Planungsmodell_Makroplanung_23_reduced.svg"
   inkscape:version="1.3.2 (091e20e, 2023-11-25)"
   xmlns:inkscape="http://www.inkscape.org/namespaces/inkscape"
   xmlns:sodipodi="http://sodipodi.sourceforge.net/DTD/sodipodi-0.dtd"
   xmlns="http://www.w3.org/2000/svg"
   xmlns:svg="http://www.w3.org/2000/svg"
   xmlns:rdf="http://www.w3.org/1999/02/22-rdf-syntax-ns#"
   xmlns:cc="http://creativecommons.org/ns#"
   xmlns:dc="http://purl.org/dc/elements/1.1/"><sodipodi:namedview
     id="namedview1"
     pagecolor="#ffffff"
     bordercolor="#000000"
     borderopacity="0.25"
     inkscape:showpageshadow="2"
     inkscape:pageopacity="0.0"
     inkscape:pagecheckerboard="0"
     inkscape:deskcolor="#d1d1d1"
     inkscape:zoom="0.68773979"
     inkscape:cx="297.35083"
     inkscape:cy="401.31457"
     inkscape:window-width="1280"
     inkscape:window-height="655"
     inkscape:window-x="0"
     inkscape:window-y="25"
     inkscape:window-maximized="1"
     inkscape:current-layer="g10" /><metadata
     id="metadata8"><rdf:RDF><cc:Work
         rdf:about=""><dc:format>image/svg+xml</dc:format><dc:type
           rdf:resource="http://purl.org/dc/dcmitype/StillImage" /></cc:Work></rdf:RDF></metadata><defs
     id="defs6"><rect
       x="103.23672"
       y="109.05287"
       width="45.075188"
       height="71.247879"
       id="rect1" /></defs><g
     transform="matrix(1.3333333,0,0,-1.3333333,0,1122.52)"
     id="g10"><g
   transform="translate(169.86864,392.27013)"
   id="g12"><path
     id="path14"
     style="fill:#fbfabb;fill-opacity:1;fill-rule:nonzero;stroke:none"
     d="m 0,0 -0.267,-57.963 175.595,-23.1 175.28,23.1 L 350.874,0 Z" /></g><text
   id="text18"
   style="font-variant:normal;font-weight:normal;font-stretch:normal;font-size:18px;font-family:Arial;-inkscape-font-specification:ArialMT;writing-mode:lr-tb;fill:#231f20;fill-opacity:1;fill-rule:nonzero;stroke:none"
   transform="scale(1,-1)"
   x="181.73164"
   y="-356.77982"><tspan
     id="tspan16"
     y="-356.77982"
     x="181.73164 196.72565 200.72165 209.72165 215.71565 225.72365 235.73164 239.72765 249.73564 259.74365 269.75165 279.75964">Mikroplanung</tspan></text>
<g
   transform="translate(2.2661521,392.39453)"
   id="g20"><path
     id="path22"
     style="fill:#f6f569;fill-opacity:1;fill-rule:nonzero;stroke:none"
     d="m 0,0 -0.128,-57.957 83.971,-23.23 83.976,23.23 L 167.947,0 Z" /></g><g
   transform="translate(2.2661521,297.00974)"
   id="g24"><path
     id="path26"
     style="fill:#c1bc92;fill-opacity:1;fill-rule:nonzero;stroke:none"
     d="m 0,0 -0.128,-114.023 83.973,-22.838 83.977,22.838 L 167.949,0 Z" /></g><g
   transform="translate(2.2661521,515.30164)"
   id="g28"><path
     id="path30"
     style="fill:#f2b169;fill-opacity:1;fill-rule:nonzero;stroke:none"
     d="m 0,0 -0.128,-85.696 83.755,-23.43 84.194,23.43 L 167.948,0 Z" /></g><g
   transform="translate(2.2661521,688.21503)"
   id="g32"><path
     id="path34"
     style="fill:#d1a1c2;fill-opacity:1;fill-rule:nonzero;stroke:none"
     d="m 0,0 -0.128,-135.265 83.756,-23.467 84.194,23.467 L 167.95,0 Z" /></g><g
   transform="translate(3.2670521,839.27744)"
   id="g36"><path
     id="path38"
     style="fill:#a08588;fill-opacity:1;fill-rule:nonzero;stroke:none"
     d="m 0,0 -0.128,-114.023 83.973,-22.838 83.977,22.838 L 167.949,0 Z" /></g><g
   transform="translate(169.65044,297.00974)"
   id="g40"><path
     id="path42"
     style="fill:#e6e3d0;fill-opacity:1;fill-rule:nonzero;stroke:none"
     d="m 0,0 -0.267,-114.046 175.435,-22.843 175.444,22.843 L 350.879,0 Z" /></g><g
   transform="translate(169.65086,515.30164)"
   id="g44"><path
     id="path46"
     style="fill:#f9dfbd;fill-opacity:1;fill-rule:nonzero;stroke:none"
     d="M 0,0 -0.267,-85.71 175.329,-108.984 350.611,-85.71 350.877,0 Z" /></g><g
   transform="translate(169.65025,688.21503)"
   id="g48"><path
     id="path50"
     style="fill:#edd5e5;fill-opacity:1;fill-rule:nonzero;stroke:none"
     d="M 0,0 -0.267,-135.298 175.33,-158.591 350.613,-135.298 350.879,0 Z" /></g><g
   transform="translate(170.65125,839.27744)"
   id="g52"><path
     id="path54"
     style="fill:#d8cbcb;fill-opacity:1;fill-rule:nonzero;stroke:none"
     d="m 0,0 -0.267,-114.046 175.435,-22.843 175.444,22.843 L 350.879,0 Z" /></g><text
   id="text66"
   style="font-variant:normal;font-weight:bold;font-stretch:normal;font-size:20px;font-family:Arial;-inkscape-font-specification:Arial-BoldMT;writing-mode:lr-tb;fill:#231f20;fill-opacity:1;fill-rule:nonzero;stroke:none"
   transform="scale(1,-1)"
   x="17.487051"
   y="-354.61511"><tspan
     id="tspan56"
     y="-354.61511"
     x="17.487051 31.109051 43.059052 55.003052 65.883049 73.403053 84.233055 90.803055 96.183052 106.91905 112.31506 123.20105 130.72105 141.55305">Konkretisieren</tspan><tspan
     id="tspan58"
     y="-259.35513"
     x="33.467052 47.483051 58.323051 69.179054 74.405052 79.785049 90.521049 95.919052 106.80305 114.33105 125.17105">Realisieren</tspan><tspan
     id="tspan60"
     y="-477.65512"
     x="37.507053 50.527054 62.469051 69.363052 84.593056 95.477051 103.78706 110.29505 121.12905">Entwerfen</tspan><tspan
     id="tspan62"
     y="-650.57513"
     x="27.147051 40.171051 52.111053 58.763054 69.439049 80.313049 92.335052 103.17506 108.52705 120.65705 131.49706">Entscheiden</tspan><tspan
     id="tspan64"
     y="-801.63513"
     x="55.307053 69.747047 75.307053 86.427055 94.207054 105.32705">Klären</tspan></text>
<text
   id="text80"
   style="font-variant:normal;font-weight:normal;font-stretch:normal;font-size:18px;font-family:Arial;-inkscape-font-specification:ArialMT;writing-mode:lr-tb;fill:#231f20;fill-opacity:1;fill-rule:nonzero;stroke:none"
   transform="scale(1,-1)"
   x="187.88885"
   y="-803.78711"><tspan
     id="tspan68"
     y="-803.78711"
     x="187.88885 199.89485 203.89085 208.89485 218.90285 228.91084 233.91486 237.91084 247.91885 257.92685 266.92685 276.93484 286.94284 296.95084 300.94684 309.94684 318.94684">Situationsanalyse</tspan><tspan
     id="tspan70"
     y="-775.77911"
     x="182.88486 187.88885 199.89485 209.90285 218.90285 228.91084 238.91885 248.92685 258.93484 262.93085 271.93085 280.93085"> Sachanalyse</tspan><tspan
     id="tspan72"
     y="-747.77112"
     x="182.88486 187.88525 200.88126 204.87724 214.88525 224.89325 233.89325 238.89725 242.89325 251.89325 260.89325 270.90125 280.90924 284.93405 296.94006 306.94806 316.95605 320.95206 329.95206 338.95206"> Didaktische Analyse</tspan><tspan
     id="tspan74"
     y="-480.50714"
     x="181.51685 191.52486 201.53285 207.52686 217.53485 227.54285 233.53685 243.54485 252.54485 262.55286 271.55286 280.55286">Lernprozesse</tspan><tspan
     id="tspan76"
     y="-452.49915"
     x="181.51685 191.52486 201.53285 207.52686 217.53485 227.54285 233.53685 239.53085 249.53885 259.54684 269.55484 279.56287 294.55685 304.56485 314.57285 319.57684">Lernarrangements</tspan><tspan
     id="tspan78"
     y="-259.61111"
     x="181.51685 194.51285 204.52084 209.52486 219.53285 225.52686 231.52084 235.51685 244.51685 254.52486 259.52884 268.52884 278.53687 288.54486 294.53885 303.53885 313.54684 318.55084 328.55884 338.56683 344.56085 354.56885 364.57684">Unterrichtsdurchführung</tspan></text>
<text
   id="text84"
   style="font-variant:normal;font-weight:normal;font-stretch:normal;font-size:18px;font-family:Arial;-inkscape-font-specification:ArialMT;writing-mode:lr-tb;fill:#231f20;fill-opacity:1;fill-rule:nonzero;stroke:none"
   transform="scale(1,-1)"
   x="181.51685"
   y="-231.60312"><tspan
     id="tspan82">Reflexion</tspan></text>
<text
   id="text96"
   style="font-variant:normal;font-weight:normal;font-stretch:normal;font-size:18px;font-family:Arial;-inkscape-font-specification:ArialMT;writing-mode:lr-tb;fill:#231f20;fill-opacity:1;fill-rule:nonzero;stroke:none"
   transform="scale(1,-1)"
   x="181.51685"
   y="-203.59512"><tspan
     id="tspan86"
     y="-203.59512"
     x="181.51685 198.18124 208.18925 212.18526 217.18925 227.19725 233.19125 243.19925 253.20724 258.21124 271.20724 275.20325 284.20325 293.20325 297.19925 307.20724 317.21524">Weiterentwicklung</tspan><tspan
     id="tspan88"
     y="-652.46112"
     x="181.87685 191.88486 201.89285 207.88686 217.89485 227.90285 237.91086 247.91885 257.92685 267.93484 276.93484 281.93884 291.94684 301.95486">Lerngegenstand</tspan><tspan
     id="tspan90"
     y="-625.46112"
     x="181.87685 193.88286 203.89085 218.88486 228.89285 238.90085 243.90485 253.91286 263.92084 272.92084 282.92886">Kompetenzen</tspan><tspan
     id="tspan92"
     y="-598.46112"
     x="181.87685 191.88486 201.89285 207.88686 217.89485 226.89485 230.89085 240.89885 244.89485 254.90285 259.90686 264.91086 269.91486 279.92285 289.93085 299.93884 305.93286 315.94086 319.93686 329.94485 339.95285 344.95685 358.96085 368.96884 373.97284 382.97284 392.98087 407.97485 417.98285">Lernziele / Learning Outcomes</tspan><tspan
     id="tspan94"
     y="-571.46112"
     x="181.87685 193.88286 203.89085 213.89885 219.89285 224.89685 234.90485 238.90085 242.89685 252.90485 262.91284">Beurteilung</tspan></text>
<text
   id="text100"
   style="font-variant:normal;font-weight:bold;font-stretch:normal;font-size:30px;font-family:'Avenir Black';-inkscape-font-specification:Avenir-Black;writing-mode:lr-tb;fill:#231f20;fill-opacity:1;fill-rule:nonzero;stroke:none"
   transform="scale(1,-1)"
   x="3.1306512"
   y="-864.57721"><tspan
     id="tspan98" /></text>
<text
   id="text108"
   style="font-variant:normal;font-weight:normal;font-stretch:normal;font-size:12px;font-family:Arial;-inkscape-font-specification:ArialMT;writing-mode:lr-tb;fill:#231f20;fill-opacity:1;fill-rule:nonzero;stroke:none"
   transform="scale(1,-1)"
   x="1.7415512"
   y="-133.33043" />
<text
   xml:space="preserve"
   transform="matrix(0.75000002,0,0,-0.75000002,-35.987449,914.95545)"
   id="text1"
   style="white-space:pre;shape-inside:url(#rect1);fill:#ffffff" /></g></svg>
